<mxfile host="app.diagrams.net" agent="Mozilla/5.0 (Windows NT 10.0; Win64; x64) AppleWebKit/537.36 (KHTML, like Gecko) Chrome/135.0.0.0 Safari/537.36 Edg/135.0.0.0" version="26.2.9">
  <diagram name="Page-1" id="dQDk-iio5bwoTZzDiT8_">
    <mxGraphModel dx="1328" dy="828" grid="1" gridSize="10" guides="1" tooltips="1" connect="1" arrows="1" fold="1" page="1" pageScale="1" pageWidth="1654" pageHeight="2336" math="0" shadow="0">
      <root>
        <mxCell id="0" />
        <mxCell id="1" parent="0" />
        <mxCell id="6azXPENtqk_9OcNg7C0d-1" value="Đăng ký" style="shape=umlFrame;whiteSpace=wrap;html=1;pointerEvents=0;" vertex="1" parent="1">
          <mxGeometry x="190" y="30" width="1090" height="800" as="geometry" />
        </mxCell>
        <mxCell id="6azXPENtqk_9OcNg7C0d-15" value="" style="shape=umlLifeline;perimeter=lifelinePerimeter;whiteSpace=wrap;html=1;container=1;dropTarget=0;collapsible=0;recursiveResize=0;outlineConnect=0;portConstraint=eastwest;newEdgeStyle={&quot;curved&quot;:0,&quot;rounded&quot;:0};participant=umlActor;rotation=0;spacing=2;strokeWidth=1;perimeterSpacing=0;size=48;" vertex="1" parent="1">
          <mxGeometry x="278" y="80" width="22" height="790" as="geometry" />
        </mxCell>
        <mxCell id="6azXPENtqk_9OcNg7C0d-19" value="Người dùng" style="text;html=1;align=center;verticalAlign=middle;resizable=0;points=[];autosize=1;strokeColor=none;fillColor=none;" vertex="1" parent="1">
          <mxGeometry x="245" y="48" width="90" height="30" as="geometry" />
        </mxCell>
        <mxCell id="6azXPENtqk_9OcNg7C0d-26" value="GUI Đăng kí" style="shape=umlLifeline;perimeter=lifelinePerimeter;whiteSpace=wrap;html=1;container=1;dropTarget=0;collapsible=0;recursiveResize=0;outlineConnect=0;portConstraint=eastwest;newEdgeStyle={&quot;curved&quot;:0,&quot;rounded&quot;:0};" vertex="1" parent="1">
          <mxGeometry x="460" y="78" width="100" height="792" as="geometry" />
        </mxCell>
        <mxCell id="6azXPENtqk_9OcNg7C0d-29" value="" style="html=1;points=[[0,0,0,0,5],[0,1,0,0,-5],[1,0,0,0,5],[1,1,0,0,-5]];perimeter=orthogonalPerimeter;outlineConnect=0;targetShapes=umlLifeline;portConstraint=eastwest;newEdgeStyle={&quot;curved&quot;:0,&quot;rounded&quot;:0};" vertex="1" parent="6azXPENtqk_9OcNg7C0d-26">
          <mxGeometry x="45" y="52" width="10" height="128" as="geometry" />
        </mxCell>
        <mxCell id="6azXPENtqk_9OcNg7C0d-35" value="" style="html=1;points=[[0,0,0,0,5],[0,1,0,0,-5],[1,0,0,0,5],[1,1,0,0,-5]];perimeter=orthogonalPerimeter;outlineConnect=0;targetShapes=umlLifeline;portConstraint=eastwest;newEdgeStyle={&quot;curved&quot;:0,&quot;rounded&quot;:0};" vertex="1" parent="6azXPENtqk_9OcNg7C0d-26">
          <mxGeometry x="45" y="230" width="10" height="450" as="geometry" />
        </mxCell>
        <mxCell id="6azXPENtqk_9OcNg7C0d-27" value="Controller Đăng kí" style="shape=umlLifeline;perimeter=lifelinePerimeter;whiteSpace=wrap;html=1;container=1;dropTarget=0;collapsible=0;recursiveResize=0;outlineConnect=0;portConstraint=eastwest;newEdgeStyle={&quot;curved&quot;:0,&quot;rounded&quot;:0};" vertex="1" parent="1">
          <mxGeometry x="700" y="78" width="100" height="782" as="geometry" />
        </mxCell>
        <mxCell id="6azXPENtqk_9OcNg7C0d-30" value="" style="html=1;points=[[0,0,0,0,5],[0,1,0,0,-5],[1,0,0,0,5],[1,1,0,0,-5]];perimeter=orthogonalPerimeter;outlineConnect=0;targetShapes=umlLifeline;portConstraint=eastwest;newEdgeStyle={&quot;curved&quot;:0,&quot;rounded&quot;:0};" vertex="1" parent="6azXPENtqk_9OcNg7C0d-27">
          <mxGeometry x="45" y="62" width="10" height="80" as="geometry" />
        </mxCell>
        <mxCell id="6azXPENtqk_9OcNg7C0d-41" value="" style="html=1;points=[[0,0,0,0,5],[0,1,0,0,-5],[1,0,0,0,5],[1,1,0,0,-5]];perimeter=orthogonalPerimeter;outlineConnect=0;targetShapes=umlLifeline;portConstraint=eastwest;newEdgeStyle={&quot;curved&quot;:0,&quot;rounded&quot;:0};" vertex="1" parent="6azXPENtqk_9OcNg7C0d-27">
          <mxGeometry x="45" y="242" width="10" height="418" as="geometry" />
        </mxCell>
        <mxCell id="6azXPENtqk_9OcNg7C0d-28" value="Database" style="shape=umlLifeline;perimeter=lifelinePerimeter;whiteSpace=wrap;html=1;container=1;dropTarget=0;collapsible=0;recursiveResize=0;outlineConnect=0;portConstraint=eastwest;newEdgeStyle={&quot;curved&quot;:0,&quot;rounded&quot;:0};" vertex="1" parent="1">
          <mxGeometry x="990" y="80" width="100" height="760" as="geometry" />
        </mxCell>
        <mxCell id="6azXPENtqk_9OcNg7C0d-42" value="" style="html=1;points=[[0,0,0,0,5],[0,1,0,0,-5],[1,0,0,0,5],[1,1,0,0,-5]];perimeter=orthogonalPerimeter;outlineConnect=0;targetShapes=umlLifeline;portConstraint=eastwest;newEdgeStyle={&quot;curved&quot;:0,&quot;rounded&quot;:0};" vertex="1" parent="6azXPENtqk_9OcNg7C0d-28">
          <mxGeometry x="45" y="270" width="10" height="370" as="geometry" />
        </mxCell>
        <mxCell id="6azXPENtqk_9OcNg7C0d-31" value="đăng ký" style="html=1;verticalAlign=bottom;endArrow=block;curved=0;rounded=0;entryX=0.422;entryY=0.131;entryDx=0;entryDy=0;entryPerimeter=0;" edge="1" parent="1" source="6azXPENtqk_9OcNg7C0d-15" target="6azXPENtqk_9OcNg7C0d-29">
          <mxGeometry x="0.0013" width="80" relative="1" as="geometry">
            <mxPoint x="287.83333333333326" y="149.99799999999988" as="sourcePoint" />
            <mxPoint x="512.2" y="149.99799999999988" as="targetPoint" />
            <mxPoint as="offset" />
          </mxGeometry>
        </mxCell>
        <mxCell id="6azXPENtqk_9OcNg7C0d-37" value="hiện thị giao diện" style="html=1;verticalAlign=bottom;endArrow=open;dashed=1;endSize=8;curved=0;rounded=0;entryX=0.653;entryY=0.215;entryDx=0;entryDy=0;entryPerimeter=0;" edge="1" parent="1" source="6azXPENtqk_9OcNg7C0d-29" target="6azXPENtqk_9OcNg7C0d-15">
          <mxGeometry relative="1" as="geometry">
            <mxPoint x="870" y="410" as="sourcePoint" />
            <mxPoint x="790" y="410" as="targetPoint" />
          </mxGeometry>
        </mxCell>
        <mxCell id="6azXPENtqk_9OcNg7C0d-39" value="giao diện yêu cầu" style="html=1;verticalAlign=bottom;endArrow=block;curved=0;rounded=0;exitX=0.487;exitY=0.112;exitDx=0;exitDy=0;exitPerimeter=0;" edge="1" parent="1" source="6azXPENtqk_9OcNg7C0d-26" target="6azXPENtqk_9OcNg7C0d-27">
          <mxGeometry width="80" relative="1" as="geometry">
            <mxPoint x="790" y="410" as="sourcePoint" />
            <mxPoint x="870" y="410" as="targetPoint" />
          </mxGeometry>
        </mxCell>
        <mxCell id="6azXPENtqk_9OcNg7C0d-40" value="hiện thị giao diện" style="html=1;verticalAlign=bottom;endArrow=open;dashed=1;endSize=8;curved=0;rounded=0;entryX=0.487;entryY=0.17;entryDx=0;entryDy=0;entryPerimeter=0;" edge="1" parent="1" source="6azXPENtqk_9OcNg7C0d-27" target="6azXPENtqk_9OcNg7C0d-26">
          <mxGeometry relative="1" as="geometry">
            <mxPoint x="870" y="410" as="sourcePoint" />
            <mxPoint x="790" y="410" as="targetPoint" />
          </mxGeometry>
        </mxCell>
        <mxCell id="6azXPENtqk_9OcNg7C0d-44" value="nhập dữ liệu" style="html=1;verticalAlign=bottom;endArrow=block;curved=0;rounded=0;entryX=0.548;entryY=0.343;entryDx=0;entryDy=0;entryPerimeter=0;" edge="1" parent="1" source="6azXPENtqk_9OcNg7C0d-15" target="6azXPENtqk_9OcNg7C0d-26">
          <mxGeometry x="-0.0073" width="80" relative="1" as="geometry">
            <mxPoint x="690" y="410" as="sourcePoint" />
            <mxPoint x="770" y="410" as="targetPoint" />
            <mxPoint as="offset" />
          </mxGeometry>
        </mxCell>
        <mxCell id="6azXPENtqk_9OcNg7C0d-45" value="yêu cầu xác nhập" style="html=1;verticalAlign=bottom;endArrow=block;curved=0;rounded=0;entryX=0.487;entryY=0.379;entryDx=0;entryDy=0;entryPerimeter=0;" edge="1" parent="1" source="6azXPENtqk_9OcNg7C0d-26" target="6azXPENtqk_9OcNg7C0d-27">
          <mxGeometry width="80" relative="1" as="geometry">
            <mxPoint x="690" y="410" as="sourcePoint" />
            <mxPoint x="770" y="410" as="targetPoint" />
          </mxGeometry>
        </mxCell>
        <mxCell id="6azXPENtqk_9OcNg7C0d-47" value="alternative" style="shape=umlFrame;whiteSpace=wrap;html=1;pointerEvents=0;" vertex="1" parent="1">
          <mxGeometry x="230" y="410" width="990" height="360" as="geometry" />
        </mxCell>
        <mxCell id="6azXPENtqk_9OcNg7C0d-48" value="thông báo thất bại" style="html=1;verticalAlign=bottom;endArrow=open;dashed=1;endSize=8;curved=0;rounded=0;entryX=0.474;entryY=0.465;entryDx=0;entryDy=0;entryPerimeter=0;" edge="1" parent="1" source="6azXPENtqk_9OcNg7C0d-27" target="6azXPENtqk_9OcNg7C0d-26">
          <mxGeometry relative="1" as="geometry">
            <mxPoint x="770" y="520" as="sourcePoint" />
            <mxPoint x="690" y="520" as="targetPoint" />
          </mxGeometry>
        </mxCell>
        <mxCell id="6azXPENtqk_9OcNg7C0d-49" value="thông báo thất bại" style="html=1;verticalAlign=bottom;endArrow=open;dashed=1;endSize=8;curved=0;rounded=0;" edge="1" parent="1" source="6azXPENtqk_9OcNg7C0d-26" target="6azXPENtqk_9OcNg7C0d-15">
          <mxGeometry relative="1" as="geometry">
            <mxPoint x="770" y="520" as="sourcePoint" />
            <mxPoint x="690" y="520" as="targetPoint" />
          </mxGeometry>
        </mxCell>
        <mxCell id="6azXPENtqk_9OcNg7C0d-50" value="" style="line;strokeWidth=1;fillColor=none;align=left;verticalAlign=middle;spacingTop=-1;spacingLeft=3;spacingRight=3;rotatable=0;labelPosition=right;points=[];portConstraint=eastwest;strokeColor=inherit;dashed=1;" vertex="1" parent="1">
          <mxGeometry x="190" y="470" width="1090" height="8" as="geometry" />
        </mxCell>
        <mxCell id="6azXPENtqk_9OcNg7C0d-51" value="email đã tồn tại" style="html=1;verticalAlign=bottom;endArrow=open;dashed=1;endSize=8;curved=0;rounded=0;entryX=0.123;entryY=0.449;entryDx=0;entryDy=0;entryPerimeter=0;" edge="1" parent="1" source="6azXPENtqk_9OcNg7C0d-42" target="6azXPENtqk_9OcNg7C0d-41">
          <mxGeometry x="-0.0052" relative="1" as="geometry">
            <mxPoint x="770" y="520" as="sourcePoint" />
            <mxPoint x="690" y="520" as="targetPoint" />
            <mxPoint as="offset" />
          </mxGeometry>
        </mxCell>
        <mxCell id="6azXPENtqk_9OcNg7C0d-52" value="thông báo thất bại" style="html=1;verticalAlign=bottom;endArrow=open;dashed=1;endSize=8;curved=0;rounded=0;" edge="1" parent="1" source="6azXPENtqk_9OcNg7C0d-41" target="6azXPENtqk_9OcNg7C0d-26">
          <mxGeometry relative="1" as="geometry">
            <mxPoint x="770" y="520" as="sourcePoint" />
            <mxPoint x="690" y="520" as="targetPoint" />
          </mxGeometry>
        </mxCell>
        <mxCell id="6azXPENtqk_9OcNg7C0d-55" value="" style="line;strokeWidth=1;fillColor=none;align=left;verticalAlign=middle;spacingTop=-1;spacingLeft=3;spacingRight=3;rotatable=0;labelPosition=right;points=[];portConstraint=eastwest;strokeColor=inherit;dashed=1;" vertex="1" parent="1">
          <mxGeometry x="190" y="570" width="1090" height="8" as="geometry" />
        </mxCell>
        <mxCell id="6azXPENtqk_9OcNg7C0d-56" value="email không tồn tại" style="html=1;verticalAlign=bottom;endArrow=open;dashed=1;endSize=8;curved=0;rounded=0;exitX=0.504;exitY=0.677;exitDx=0;exitDy=0;exitPerimeter=0;" edge="1" parent="1" source="6azXPENtqk_9OcNg7C0d-28" target="6azXPENtqk_9OcNg7C0d-27">
          <mxGeometry relative="1" as="geometry">
            <mxPoint x="770" y="520" as="sourcePoint" />
            <mxPoint x="690" y="520" as="targetPoint" />
          </mxGeometry>
        </mxCell>
        <mxCell id="6azXPENtqk_9OcNg7C0d-57" value="thông báo thất bại" style="html=1;verticalAlign=bottom;endArrow=open;dashed=1;endSize=8;curved=0;rounded=0;entryX=0.472;entryY=0.6;entryDx=0;entryDy=0;entryPerimeter=0;" edge="1" parent="1" source="6azXPENtqk_9OcNg7C0d-35" target="6azXPENtqk_9OcNg7C0d-15">
          <mxGeometry x="0.0072" relative="1" as="geometry">
            <mxPoint x="620" y="690" as="sourcePoint" />
            <mxPoint x="390" y="690" as="targetPoint" />
            <mxPoint as="offset" />
          </mxGeometry>
        </mxCell>
        <mxCell id="6azXPENtqk_9OcNg7C0d-58" value="yêu cầu&amp;nbsp; cập nhật sữ liệu" style="html=1;verticalAlign=bottom;endArrow=block;curved=0;rounded=0;entryX=0.627;entryY=0.737;entryDx=0;entryDy=0;entryPerimeter=0;" edge="1" parent="1" source="6azXPENtqk_9OcNg7C0d-27" target="6azXPENtqk_9OcNg7C0d-42">
          <mxGeometry width="80" relative="1" as="geometry">
            <mxPoint x="690" y="580" as="sourcePoint" />
            <mxPoint x="770" y="580" as="targetPoint" />
          </mxGeometry>
        </mxCell>
        <mxCell id="6azXPENtqk_9OcNg7C0d-59" value="cập nhật dữ liệu thành công" style="html=1;verticalAlign=bottom;endArrow=open;dashed=1;endSize=8;curved=0;rounded=0;exitX=0.488;exitY=0.761;exitDx=0;exitDy=0;exitPerimeter=0;" edge="1" parent="1" source="6azXPENtqk_9OcNg7C0d-28" target="6azXPENtqk_9OcNg7C0d-27">
          <mxGeometry relative="1" as="geometry">
            <mxPoint x="770" y="580" as="sourcePoint" />
            <mxPoint x="690" y="580" as="targetPoint" />
          </mxGeometry>
        </mxCell>
        <mxCell id="6azXPENtqk_9OcNg7C0d-60" value="xác nhận dữ liệu" style="html=1;verticalAlign=bottom;endArrow=block;curved=0;rounded=0;entryX=0.504;entryY=0.413;entryDx=0;entryDy=0;entryPerimeter=0;" edge="1" parent="1" source="6azXPENtqk_9OcNg7C0d-41" target="6azXPENtqk_9OcNg7C0d-28">
          <mxGeometry x="-0.0062" width="80" relative="1" as="geometry">
            <mxPoint x="690" y="460" as="sourcePoint" />
            <mxPoint x="770" y="460" as="targetPoint" />
            <mxPoint as="offset" />
          </mxGeometry>
        </mxCell>
        <mxCell id="6azXPENtqk_9OcNg7C0d-61" value="thông báo thành công" style="html=1;verticalAlign=bottom;endArrow=open;dashed=1;endSize=8;curved=0;rounded=0;entryX=0.482;entryY=0.764;entryDx=0;entryDy=0;entryPerimeter=0;" edge="1" parent="1" source="6azXPENtqk_9OcNg7C0d-41" target="6azXPENtqk_9OcNg7C0d-26">
          <mxGeometry relative="1" as="geometry">
            <mxPoint x="770" y="460" as="sourcePoint" />
            <mxPoint x="690" y="460" as="targetPoint" />
          </mxGeometry>
        </mxCell>
        <mxCell id="6azXPENtqk_9OcNg7C0d-62" value="thông báo thành công" style="html=1;verticalAlign=bottom;endArrow=open;dashed=1;endSize=8;curved=0;rounded=0;entryX=0.397;entryY=0.795;entryDx=0;entryDy=0;entryPerimeter=0;" edge="1" parent="1" source="6azXPENtqk_9OcNg7C0d-26" target="6azXPENtqk_9OcNg7C0d-15">
          <mxGeometry x="-0.0043" relative="1" as="geometry">
            <mxPoint x="770" y="460" as="sourcePoint" />
            <mxPoint x="690" y="460" as="targetPoint" />
            <mxPoint as="offset" />
          </mxGeometry>
        </mxCell>
      </root>
    </mxGraphModel>
  </diagram>
</mxfile>
